# xmcd
#
# Track frame offsets:
# 150
# 19852
# 38005
# 54382
# 66912
# 85587
# 100227
# 118065
# 134885
# 151760
#
# Disc length: 2560 seconds
#
#
# Revision: 0
# Processed by: cddbd v1.4PL0 Copyright (c) Steve Scherf et al.
# Submitted via: FreeRIP 2.30 
#
DISCID=7f09fe0a
DTITLE=The Satellite Blufes Band - Last Ride
DYEAR=2000
DGENRE=Blues
TTITLE0=Long Shot
TTITLE1=Nobody Home
TTITLE2=Nadine
TTITLE3=Nothin in the World
TTITLE4=Dustbowl Depression Blues
TTITLE5=Linda Lou
TTITLE6=Wake M When It's Over
TTITLE7=Last Ride
TTITLE8=Love Whip
TTITLE9=Back Door
EXTD=BB Productions bb@bearhead.net
EXTT0=
EXTT1=
EXTT2=
EXTT3=
EXTT4=
EXTT5=
EXTT6=
EXTT7=
EXTT8=
EXTT9=
PLAYORDER=
